<?xml version="1.0" encoding="UTF-8"?>
<svg xmlns="http://www.w3.org/2000/svg" version="1.1" viewBox="0 0 50 50">
  <defs>
    <style>
      .cls-1 {
        fill: #3f3f3e;
      }
    </style>
  </defs>
  <!-- Generator: Adobe Illustrator 28.6.0, SVG Export Plug-In . SVG Version: 1.2.0 Build 709)  -->
  <g>
    <g id="ELEMENTS">
      <path class="cls-1" d="M29.95,14.93h-9.9c-2.82,0-5.12,2.3-5.12,5.12v9.9c0,2.82,2.3,5.12,5.12,5.12h9.9c2.82,0,5.12-2.3,5.12-5.12v-9.9c0-2.82-2.3-5.12-5.12-5.12ZM25.1,31.11c-3.37,0-6.11-2.74-6.11-6.11s2.74-6.11,6.11-6.11,6.11,2.74,6.11,6.11-2.74,6.11-6.11,6.11ZM31.57,19.94c-.8,0-1.45-.65-1.45-1.45s.65-1.45,1.45-1.45,1.45.65,1.45,1.45-.65,1.45-1.45,1.45Z"/>
      <path class="cls-1" d="M25,1.17C11.84,1.17,1.17,11.84,1.17,25s10.67,23.83,23.83,23.83,23.83-10.67,23.83-23.83S38.16,1.17,25,1.17ZM37.4,29.95c0,4.11-3.34,7.45-7.45,7.45h-9.9c-4.11,0-7.45-3.34-7.45-7.45v-9.9c0-4.11,3.34-7.45,7.45-7.45h9.9c4.11,0,7.45,3.34,7.45,7.45v9.9Z"/>
      <path class="cls-1" d="M25.1,21.09c-2.16,0-3.91,1.76-3.91,3.91s1.76,3.91,3.91,3.91,3.91-1.76,3.91-3.91-1.76-3.91-3.91-3.91Z"/>
    </g>
  </g>
</svg>