<?xml version="1.0" encoding="UTF-8"?>
<svg id="Layer_1" xmlns="http://www.w3.org/2000/svg" viewBox="0 0 1053 286">
  <defs>
    <style>
      .cls-1 {
        fill: #3f3f3f;
      }
    </style>
  </defs>
  <path class="cls-1" d="M923.03,213.8c-3.03,2.31-5.8,4.62-8.77,6.65-5.96,4.09-12.42,6.19-19.79,4.83-6.9-1.27-10.96-5.86-13.98-11.61-2.7-5.15-3.75-5.26-7.67-.86-5.35,6.01-10.82,11.81-17.6,16.27-5.84,3.84-12.09,6.22-19.19,5.9-9.74-.44-16.28-6.2-17.91-15.82-.31-1.84-.51-3.7-.82-6-1.01.78-1.72,1.35-2.44,1.89-5.05,3.81-10.35,7.16-16.56,8.79-11.14,2.93-19.29-.23-25.56-9.91-.84-1.3-1.62-2.66-2.59-3.86-1.93-2.38-3.57-2.53-5.94-.55-1.25,1.05-2.34,2.29-3.48,3.46-5.91,6.06-11.84,12.18-19.38,16.18-4.12,2.19-8.66,4.1-13.22,4.84-11.87,1.94-22.65-6.71-24.13-19.11-.55-4.56-.09-9.24-.09-14.15-.69.28-1.34.57-2.02.8-5.94,2.02-11.82,4.2-17.84,5.96-3.26.95-6.12,2.23-8.29,4.88-5.32,6.49-10.89,12.69-18.19,17.09-6.43,3.88-13.24,6.73-20.83,7.11-13.21.66-22.34-5.67-26.49-18.19-.84-2.52-1.53-5.09-2.42-8.07-1.28,1.05-2.42,1.99-3.57,2.92-5.93,4.84-12.3,8.9-19.79,10.87-16.69,4.4-25.38-9.4-24.71-20.35.47-7.73,2.49-15.09,5.94-22.06,3.32-6.72,6.68-13.42,9.82-20.22,1.03-2.22,1.76-4.69,2.06-7.11.34-2.78-1.46-4.19-4.23-3.54-1.65.39-3.44.93-4.74,1.95-4.86,3.83-9.8,7.6-14.24,11.9-14.44,13.99-26.18,30.19-37.45,46.73-3.74,5.48-7.3,11.08-10.99,16.59-1.05,1.57-2.23,3.07-3.49,4.48-1.97,2.19-4.49,2.42-7.13,1.54-2.55-.84-3.77-2.95-3.7-5.38.08-3.06.27-6.28,1.27-9.13,6.71-19.27,13.59-38.47,20.53-57.66,1.49-4.12,2.67-8.15,1.73-12.59-.59-2.78.47-5.34,2.61-6.92,6.63-4.89,9.45-12.06,12.34-19.29,7.55-18.88,16.85-36.83,29.29-52.99,3.49-4.54,7.64-8.68,12.03-12.37,2.74-2.3,6.33-3.96,9.81-4.95,8.44-2.4,15.6,2.24,17.36,10.86,1.51,7.36-.53,14.22-3.49,20.81-4.6,10.22-11,19.27-18.4,27.67-10.46,11.87-21.73,22.87-34.57,32.18-5.71,4.14-9.73,9.4-11.74,16.22-.87,2.96-2.33,5.76-3.2,8.72-.41,1.42-.07,3.05-.07,4.59,1.23-.89,2.71-1.57,3.66-2.7,4.7-5.61,9.08-11.51,13.93-16.97,5.86-6.59,12.3-12.6,20.38-16.49,5.46-2.63,11.15-4.27,17.26-2.83,7.45,1.77,12.42,7.94,12.76,15.61.38,8.55-2.59,16.25-6.2,23.75-3.4,7.06-7.09,13.98-10.46,21.05-1.1,2.3-1.89,4.84-2.31,7.36-.79,4.74,2.11,7.25,6.62,5.65,2.72-.97,5.39-2.39,7.7-4.12,10.48-7.86,18.97-17.39,24.88-29.24,7.66-15.35,18.77-27.06,35.65-32.56,3.36-1.09,6.32-3.45,9.4-5.32,4.53-2.76,9.41-3.85,14.62-2.92,7.01,1.25,11.03,6.07,13.67,12.18,3.78,8.74,4.03,17.91,2.68,27.16-.56,3.83-1.48,7.6-2.27,11.39-.73,3.48.66,4.92,4.05,3.73,9.62-3.38,17.04-9.6,22.44-18.19,5.73-9.11,12.41-17.42,20.81-24.19,9.84-7.93,21.1-11.84,33.83-11.18,5.48.28,6.6-.59,8.73-5.61,5.64-13.32,11.11-26.72,17.21-39.83,5.52-11.87,13.01-22.53,22.65-31.52,4.12-3.84,8.81-6.94,14.43-8.27,7.11-1.68,12.7,1.34,15.14,8.22,2.41,6.79,1.44,13.6-1.11,19.97-4.24,10.62-8.63,21.23-13.79,31.42-12.96,25.6-28.69,49.46-47.01,71.59-5.25,6.34-5.34,17.38-.4,23.91,2.8,3.71,7.78,4.81,12.82,1.8,4.53-2.71,8.72-6.14,12.6-9.74,8.92-8.25,14.02-19.26,20.76-29.1,10.64-15.55,24.35-27.71,43.72-31.53,5.29-1.04,10.66-.77,15.93.45,3.54.82,6.93.61,10.41-.6,6.95-2.41,11.56,1.69,10.08,8.88-.43,2.08-1.3,4.1-2.14,6.07-3.99,9.34-8.38,18.51-11.94,28.01-2.52,6.74-4.35,13.83-3.99,21.21.16,3.2.2,6.68,3.49,8.38,3.4,1.76,6.44-.21,9.07-2.12,9.15-6.66,15.47-15.6,20.09-25.79,7.58-16.7,17.87-31.23,33.36-41.59,5.22-3.49,10.85-6.08,17.14-6.83,6.52-.78,12.58.5,17.66,4.9,6.78,5.86,8.66,14,5.27,22.51-2.23,5.59-5.41,10.65-9.89,14.67-1.88,1.69-4.47,3.09-6.93,3.52-5.86,1.04-10.16-4.84-7.6-10.22,1.09-2.29,2.93-4.22,4.46-6.29,1.63-2.21,3.44-4.31,4.9-6.63,1.06-1.69,1.69-3.69.18-5.55-1.46-1.79-3.57-2.03-5.44-1.27-4.04,1.65-8.42,3.03-11.8,5.63-14.94,11.52-25.12,26.34-29.21,44.97-.47,2.17-.58,4.45-.57,6.68.02,8.21,4.92,13.35,13.17,13.93,10.38.73,19.48-2.99,28.04-8.31,16.63-10.34,28.77-25.01,39.39-41.12.9-1.37,1.71-2.8,2.66-4.13,2.41-3.39,5.72-4.38,8.96-2.78,3.71,1.84,5.55,5.45,4,9.21-1.6,3.87-3.57,7.65-5.86,11.15-10.48,16.03-23.14,30.04-39.25,40.63-9.36,6.15-19.29,10.89-30.73,12.07-14.23,1.47-28.31-5.5-33.93-17.35-.7-1.47-1.23-3.02-1.94-4.78ZM718.94,208.5c-.35,8.62,3.86,12.07,10.64,9.57,3.63-1.34,7.34-3.36,10.1-6.02,8.17-7.89,16-16.14,23.69-24.51,1.62-1.77,2.47-4.53,2.99-6.98,1.73-8.15,3.09-16.39,4.71-24.56.89-4.48-.37-6.06-4.99-5.96-5.77.13-10.67,2.5-15.29,5.68-10.29,7.07-17.6,16.69-23.28,27.59-4.35,8.35-7.85,17.06-8.59,25.19ZM833.21,208.83c-.03,3.67.13,7,3.23,8.92,3.24,2,6.31.33,9.26-1.14.61-.31,1.24-.65,1.75-1.1,3.08-2.75,6.42-5.27,9.12-8.35,10.54-12,19.64-25.1,28.16-38.57,1.77-2.79,3.07-6,3.97-9.18,1.58-5.55-1.02-8.85-6.75-8.03-4.69.67-9.48,2.03-13.73,4.11-12.07,5.92-20.02,16.07-26.5,27.48-4.63,8.16-8.1,16.74-8.52,25.87ZM638.57,220.94c1.59-.54,5.05-1.09,7.82-2.78,4.22-2.57,8.12-5.75,11.89-8.98,4.66-4,4.59-4.83.08-9.08-6.84-6.46-11.17-14.13-11.71-23.67-.16-2.83-.16-5.68-.42-8.5-.08-.92-.56-2.25-1.23-2.55-.7-.31-2,.17-2.78.69-1.12.75-2.1,1.78-2.99,2.82-6.63,7.78-11.56,16.55-14.01,26.45-1.07,4.32-1.28,9.04-.91,13.49.66,7.77,5.6,12.17,14.25,12.1ZM784.21,159.85c.34.15.69.31,1.03.46.9-.96,1.94-1.83,2.69-2.91,2.11-3.05,4.1-6.17,6.12-9.27,12.99-19.95,24.55-40.71,34.59-62.29,2.02-4.34,3.42-9,4.84-13.59.35-1.12-.32-2.55-.52-3.84-1.28.45-2.83.6-3.79,1.43-1.73,1.51-3.24,3.34-4.62,5.2-14.35,19.38-25.51,40.47-33.74,63.12-2.17,5.98-4.22,12.01-6.22,18.05-.37,1.13-.27,2.41-.38,3.63ZM585.02,70.77c-.5-.94-.73-2.1-1.37-2.4-.68-.32-1.92-.1-2.6.36-1.41.95-2.78,2.07-3.89,3.36-12.03,13.93-21.3,29.58-28.87,46.28-.25.55-.53,1.12-.59,1.7-.07.72.07,1.46.12,2.19.71-.13,1.58-.05,2.1-.44,1.3-.97,2.6-2.03,3.64-3.27,5.1-6.06,10.45-11.95,15.09-18.35,4.83-6.67,9.12-13.76,13.31-20.86,1.49-2.53,2.03-5.61,3.06-8.57ZM676.84,161.79c-.31-1.78-.53-5.1-1.57-8.14-.51-1.49-2.45-3.28-3.91-3.44-1.46-.16-3.17,1.47-4.68,2.47-.52.34-.81,1.11-1.07,1.74-4.29,10.07-5.75,20.24-.44,30.39.83,1.58,2.54,3.47,4.09,3.74,2.26.39,3.01-2.19,3.69-4.01,2.57-6.85,3.44-14.01,3.88-22.75Z"/>
  <path class="cls-1" d="M333.52,215.53c-2.29,1.82-4.36,3.62-6.59,5.19-6.92,4.87-14.42,7.76-23.07,6.2-8.33-1.5-13.61-6.88-15.07-15.28-.28-1.59-.51-3.18-.83-5.19-1.5,1.43-2.78,2.65-4.06,3.87-10.46,9.98-22.02,18.36-35.83,23.04-13.37,4.53-26.33,4.09-38.04-4.92-4.08-3.13-5.79-5.78-9.64-14.41-1.69,1.52-3.29,3.01-4.95,4.44-5.09,4.36-11,6.74-17.71,6.94-8.65.26-14.78-3.78-18.82-11.3-2.24-4.17-3.45-4.3-6.88-.95-4.32,4.21-8.4,8.68-12.93,12.63-5.94,5.17-12.94,8.11-20.94,8.47-12.13.55-21.88-6.19-25.53-17.73-.18-.55-.36-1.1-.75-2.3-2.15,2.28-3.91,4.35-5.88,6.19-6.9,6.44-14.51,11.63-24.07,13.35-15.59,2.8-25.91-4.73-31.1-18.44-4.26-11.26-3.74-22.87-1.66-34.43,6.1-33.83,18.21-65.46,35.85-94.94,5.48-9.16,11.27-18.18,18.75-25.93,4.78-4.95,9.94-9.35,16.96-10.78,9.29-1.9,18.22,4.68,19.28,14.11.78,6.93-.58,13.58-2.77,20.06-9.13,27-23.19,51.28-41.53,73.02-8.71,10.33-18.13,20.07-27.36,29.95-3.37,3.6-5.41,7.63-5.01,12.54.31,3.84.66,7.76,1.74,11.43,2.08,7.04,7.63,9.83,14.77,7.95,5.23-1.38,9.54-4.39,13.41-8.01,11.85-11.1,20.74-24.22,27.65-38.92,4.86-10.33,10.8-20.17,16.44-30.12,1.71-3.01,4.14-5.55,7.68-6.59,3.31-.97,6.36-.53,8.78,2.1,2.33,2.53,2.36,5.49.97,8.43-.95,2.01-2.21,3.88-3.41,5.78-9.19,14.56-17.07,29.74-21.49,46.48-1.04,3.95-1.56,8.15-1.53,12.23.05,6.18,3.37,8.85,9.54,8.32,5.19-.44,9.48-2.99,13.45-6.13,6.19-4.89,10.58-11.3,14.84-17.8,7.53-11.49,13.7-23.7,19.23-36.26,1.17-2.67,2.51-5.3,4.1-7.73,1.77-2.73,4.39-4.37,7.81-4.31,4.82.08,8.16,3.8,7.37,8.54-.39,2.34-1.32,4.62-2.23,6.84-4.42,10.81-7.88,21.88-9.15,33.53-.28,2.55-.29,5.18,0,7.72.67,6.13,5.16,8.44,10.01,4.63,4.41-3.46,8.67-7.54,11.78-12.15,5.52-8.19,10.1-17,15.1-25.54,7.8-13.3,17.63-24.68,31.23-32.36,6.51-3.67,13.44-5.82,21.07-4.42,13.08,2.4,20.04,14.49,15.4,26.86-2.21,5.89-5.6,11.14-10.31,15.29-1.88,1.66-4.57,2.92-7.04,3.28-5.35.78-9.47-4.71-7.38-9.7,1.01-2.4,2.88-4.44,4.44-6.6,1.71-2.37,3.64-4.59,5.21-7.04,1.02-1.6,1.55-3.55.16-5.33-1.42-1.82-3.42-1.86-5.43-1.41-5.61,1.25-10.5,4.05-14.73,7.76-12.52,10.99-21.74,24.19-25.83,40.55-.74,2.97-1.03,6.13-1.04,9.21-.02,8.09,4.91,13.16,13.03,13.77,8.94.67,17.01-2.1,24.7-6.3,7-3.82,13.6-8.31,19.03-14.14,6.68-7.18,13.5-14.37,19.13-22.35,4.35-6.17,6.99-13.55,10.32-20.43,2.59-5.34,4.92-10.82,7.65-16.09,1.81-3.49,4.64-5.97,8.85-6.37,5.11-.48,8.98,3.09,8.07,8.15-.6,3.31-2.11,6.51-3.52,9.61-4.66,10.27-9.9,20.3-14.05,30.77-2.51,6.32-3.54,13.25-4.95,19.97-.58,2.78-.56,5.93,2.17,7.77,2.77,1.87,5.75.75,8.35-.65,6.52-3.51,11.57-8.72,15.55-14.86,4.25-6.57,8.28-13.29,12.18-20.08,7.06-12.31,15.46-23.45,27.02-31.92,6.91-5.06,14.3-8.94,23.19-9.12,13.33-.27,21.45,9.82,18.07,22.72-2.58,9.81-8.59,17.34-16.3,23.64-9.94,8.11-20.8,14.41-33.6,16.93-2.52.5-4.96,1.45-7.38,2.35-2.8,1.04-4.13,3.14-4.27,6.15-.36,7.98,4.15,13.14,12.15,13.7,9.8.68,18.79-2.2,27.27-6.71,15.53-8.27,27.13-20.77,36.93-35.09,2.09-3.05,3.9-6.3,5.96-9.38,1.89-2.82,4.26-4.97,8-4.86,5.27.15,8.36,4.61,6.41,9.49-.76,1.91-1.78,3.74-2.83,5.51-9.56,16.12-20.4,31.14-36.11,42.02-11.82,8.19-24.6,13.87-39.09,15.12-6.79.59-13.43-.13-19.78-2.79-6.36-2.68-10.81-7.24-13.42-13.61-.35-.86-.71-1.73-1.16-2.81ZM104.12,72.5c-.66-1.46-.99-3.65-2-4.04-1.08-.41-3.15.52-4.21,1.49-2.51,2.33-4.84,4.9-6.96,7.6-18.75,23.88-31.05,51.07-40.62,79.62-.43,1.28.1,2.87.19,4.32,1.24-.77,2.79-1.28,3.67-2.34,4.18-5.04,8.2-10.2,12.23-15.36,14.19-18.13,26.22-37.54,34.45-59.12,1.46-3.82,2.14-7.93,3.25-12.18ZM362.31,180.26c.27-.04.8-.04,1.28-.2,1.39-.45,2.8-.87,4.13-1.46,9.7-4.25,17.36-11.08,23.89-19.24,1.27-1.59,2.38-3.41,3.12-5.29,1.16-2.95-.2-4.9-3.24-4.22-3.45.78-6.97,2.03-9.97,3.87-8.29,5.08-14.59,12.25-19.86,20.33-.7,1.07-1.34,2.24-1.72,3.45-.54,1.73.04,2.89,2.36,2.76Z"/>
  <path class="cls-1" d="M348.25,93.62c-.65,5.69-3.34,11.33-8.96,15.14-6.33,4.29-13.2,1.02-13.95-6.54-.72-7.34,1.26-13.69,7.64-18.03,3.3-2.25,6.94-2.61,10.52-.67,3.56,1.93,4.76,5.24,4.75,10.09Z"/>
  <path class="cls-1" d="M990.76,126.41c-3.67,0-6.98-.6-9.41-1.39-4.2-1.36-6.51-5.86-5.16-10.07,1.36-4.2,5.86-6.51,10.07-5.16.42.13,10.21,3.18,14.62-4.96,2.1-3.89,6.96-5.33,10.84-3.23,3.89,2.1,5.33,6.96,3.23,10.84-5.9,10.91-15.95,13.96-24.19,13.96Z"/>
</svg>