<?xml version="1.0" encoding="UTF-8"?>
<svg xmlns="http://www.w3.org/2000/svg" version="1.1" viewBox="0 0 50 50">
  <defs>
    <style>
      .cls-1 {
        fill: #3f3f3e;
      }
    </style>
  </defs>
  <!-- Generator: Adobe Illustrator 28.6.0, SVG Export Plug-In . SVG Version: 1.2.0 Build 709)  -->
  <g>
    <g id="ELEMENTS">
      <path class="cls-1" d="M25,1.17C11.84,1.17,1.17,11.84,1.17,25s10.67,23.83,23.83,23.83,23.83-10.67,23.83-23.83S38.16,1.17,25,1.17ZM19.55,32.58h-4.1v-13.16h4.1v13.16ZM17.5,17.62c-1.31,0-2.38-1.06-2.38-2.37s1.06-2.37,2.38-2.37,2.37,1.06,2.37,2.37-1.06,2.37-2.37,2.37ZM34.87,32.58h-4.09v-6.4c0-1.53-.03-3.49-2.13-3.49s-2.45,1.66-2.45,3.38v6.51h-4.09v-13.16h3.92v1.8h.05c.55-1.04,1.88-2.13,3.87-2.13,4.14,0,4.91,2.72,4.91,6.27v7.22Z"/>
    </g>
  </g>
</svg>